<svg preserveAspectRatio="none" width="100%" height="100%" overflow="visible" style="display: block;" viewBox="0 0 26.5 26" fill="none" xmlns="http://www.w3.org/2000/svg">
<g id="message-text">
<g id="Vector" opacity="0">
</g>
<path id="business_center" d="M2.28448 23.4278C1.62452 23.4278 1.07878 23.212 0.64727 22.7805C0.215757 22.349 0 21.8033 0 21.1433V15.2798H10.6609V17.3358H15.8391V15.2798H26.5V21.1433C26.5 21.8033 26.2842 22.349 25.8527 22.7805C25.4212 23.212 24.8755 23.4278 24.2155 23.4278H2.28448ZM11.727 16.2697V13.2238H14.773V16.2697H11.727ZM0 14.2137V6.82722C0 6.16725 0.215757 5.62152 0.64727 5.19C1.07878 4.75849 1.62452 4.54273 2.28448 4.54273H9.13793V2.71515C9.13793 2.05519 9.35369 1.50945 9.7852 1.07793C10.2167 0.646421 10.7625 0.430664 11.4224 0.430664H15.0776C15.7375 0.430664 16.2833 0.646421 16.7148 1.07793C17.1463 1.50945 17.3621 2.05519 17.3621 2.71515V4.54273H24.2155C24.8755 4.54273 25.4212 4.75849 25.8527 5.19C26.2842 5.62152 26.5 6.16725 26.5 6.82722V14.2137H15.8391V12.1577H10.6609V14.2137H0ZM10.204 4.54273H16.296V2.71515C16.296 2.41055 16.1691 2.13133 15.9152 1.8775C15.6614 1.62367 15.3822 1.49676 15.0776 1.49676H11.4224C11.1178 1.49676 10.8386 1.62367 10.5848 1.8775C10.3309 2.13133 10.204 2.41055 10.204 2.71515V4.54273Z" fill="var(--fill-0, white)"/>
</g>
</svg>
