<svg preserveAspectRatio="none" width="100%" height="100%" overflow="visible" style="display: block;" viewBox="0 0 23.0568 23.0568" fill="none" xmlns="http://www.w3.org/2000/svg">
<g id="user-search">
<path id="user-search_2" d="M5.77269 6.24475C5.77269 4.12544 7.49618 2.40195 9.61549 2.40195C11.7348 2.40195 13.4583 4.12544 13.4583 6.24475C13.4583 8.36406 11.7348 10.0876 9.61549 10.0876C7.49618 10.0876 5.77269 8.36406 5.77269 6.24475ZM11.288 16.6491C11.288 15.0572 12.0278 13.6825 13.0845 12.6488C13.2171 12.5191 13.1768 12.375 13.17 12.3568C13.1662 12.3462 13.1403 12.1944 12.9424 12.1521C12.5139 12.0599 12.0412 12.0099 11.5292 12.0099H7.68635C3.7859 12.0099 2.40249 14.8632 2.40249 17.313C2.40249 19.5034 3.56494 20.6562 5.76495 20.6562H12.4034C12.5667 20.6562 12.6917 20.5314 12.6917 20.3681C12.6917 20.2912 12.6609 20.2229 12.6051 20.1662C11.778 19.2238 11.288 17.9941 11.288 16.6491ZM21.6444 21.6448C21.5042 21.7851 21.3197 21.8561 21.1352 21.8561C20.9508 21.8561 20.7663 21.786 20.626 21.6448L18.867 19.8848C18.2359 20.3181 17.474 20.5746 16.6526 20.5746C14.49 20.5746 12.73 18.8146 12.73 16.652C12.73 14.4895 14.49 12.7295 16.6526 12.7295C18.8161 12.7295 20.5761 14.4895 20.5761 16.652C20.5761 17.4734 20.3195 18.2352 19.8863 18.8664L21.6454 20.6255C21.9259 20.9079 21.9259 21.3633 21.6444 21.6448ZM19.1341 16.652C19.1341 15.284 18.0206 14.1705 16.6516 14.1705C15.2836 14.1705 14.1701 15.284 14.1701 16.652C14.1701 18.0201 15.2836 19.1335 16.6516 19.1335C18.0206 19.1345 19.1341 18.021 19.1341 16.652Z" fill="var(--fill-0, white)"/>
</g>
</svg>
