<svg preserveAspectRatio="none" width="100%" height="100%" overflow="visible" style="display: block;" viewBox="0 0 26 26" fill="none" xmlns="http://www.w3.org/2000/svg">
<g id="message-text">
<g id="Vector" opacity="0">
</g>
<path id="Vector_2" d="M17.3333 2.16667H8.66667C4.33333 2.16667 2.16667 4.33333 2.16667 8.66667V22.75C2.16667 23.3458 2.65417 23.8333 3.25 23.8333H17.3333C21.6667 23.8333 23.8333 21.6667 23.8333 17.3333V8.66667C23.8333 4.33333 21.6667 2.16667 17.3333 2.16667ZM15.1667 16.5208H7.58333C7.13917 16.5208 6.77083 16.1525 6.77083 15.7083C6.77083 15.2642 7.13917 14.8958 7.58333 14.8958H15.1667C15.6108 14.8958 15.9792 15.2642 15.9792 15.7083C15.9792 16.1525 15.6108 16.5208 15.1667 16.5208ZM18.4167 11.1042H7.58333C7.13917 11.1042 6.77083 10.7358 6.77083 10.2917C6.77083 9.8475 7.13917 9.47917 7.58333 9.47917H18.4167C18.8608 9.47917 19.2292 9.8475 19.2292 10.2917C19.2292 10.7358 18.8608 11.1042 18.4167 11.1042Z" fill="var(--fill-0, white)"/>
</g>
</svg>
