<svg preserveAspectRatio="none" width="100%" height="100%" overflow="visible" style="display: block;" viewBox="0 0 42.5331 42.5331" fill="none" xmlns="http://www.w3.org/2000/svg">
<g id="search-status">
<path id="Vector" d="M20.3811 3.54439C11.0947 3.54439 3.54506 11.094 3.54506 20.3804C3.54506 29.6668 11.0947 37.2165 20.3811 37.2165C29.6675 37.2165 37.2171 29.6668 37.2171 20.3804C37.2171 11.094 29.6675 3.54439 20.3811 3.54439ZM20.3811 24.3679H15.0645C14.3378 24.3679 13.7353 23.7654 13.7353 23.0388C13.7353 22.3121 14.3378 21.7096 15.0645 21.7096H20.3811C21.1077 21.7096 21.7103 22.3121 21.7103 23.0388C21.7103 23.7654 21.1077 24.3679 20.3811 24.3679ZM25.6977 19.0513H15.0645C14.3378 19.0513 13.7353 18.4487 13.7353 17.7221C13.7353 16.9955 14.3378 16.3929 15.0645 16.3929H25.6977C26.4243 16.3929 27.0269 16.9955 27.0269 17.7221C27.0269 18.4487 26.4243 19.0513 25.6977 19.0513Z" fill="var(--fill-0, white)"/>
<g id="Vector_2" opacity="0">
</g>
<path id="Vector_3" d="M37.7497 38.9862C37.4307 38.9862 37.1117 38.8621 36.8813 38.6317L33.585 35.3354C33.1065 34.8569 33.1065 34.0772 33.585 33.5809C34.0635 33.1024 34.8433 33.1024 35.3395 33.5809L38.6358 36.8773C39.1143 37.3558 39.1143 38.1355 38.6358 38.6317C38.3877 38.8621 38.0687 38.9862 37.7497 38.9862Z" fill="var(--fill-0, white)"/>
</g>
</svg>
