<svg preserveAspectRatio="none" width="100%" height="100%" overflow="visible" style="display: block;" viewBox="0 0 20.6235 20.6235" fill="none" xmlns="http://www.w3.org/2000/svg">
<g id="user-search">
<path id="user-search_2" d="M5.16395 5.58573C5.16395 3.69009 6.70555 2.14848 8.6012 2.14848C10.4968 2.14848 12.0384 3.69009 12.0384 5.58573C12.0384 7.48137 10.4968 9.02298 8.6012 9.02298C6.70555 9.02298 5.16395 7.48137 5.16395 5.58573ZM10.0972 14.892C10.0972 13.4682 10.7589 12.2385 11.7041 11.3139C11.8227 11.1979 11.7866 11.0691 11.7806 11.0527C11.7772 11.0433 11.754 10.9075 11.577 10.8697C11.1938 10.7872 10.7709 10.7424 10.3129 10.7424H6.87565C3.38684 10.7424 2.14943 13.2946 2.14943 15.4859C2.14943 17.4451 3.1892 18.4763 5.15702 18.4763H11.0949C11.241 18.4763 11.3527 18.3646 11.3527 18.2185C11.3527 18.1498 11.3252 18.0887 11.2753 18.038C10.5355 17.195 10.0972 16.0951 10.0972 14.892ZM19.3607 19.3605C19.2352 19.486 19.0702 19.5496 18.9052 19.5496C18.7402 19.5496 18.5752 19.4869 18.4497 19.3605L16.8764 17.7863C16.3118 18.1738 15.6303 18.4033 14.8956 18.4033C12.9613 18.4033 11.387 16.829 11.387 14.8947C11.387 12.9604 12.9613 11.3861 14.8956 11.3861C16.8308 11.3861 18.405 12.9604 18.405 14.8947C18.405 15.6294 18.1756 16.3108 17.788 16.8753L19.3615 18.4488C19.6124 18.7014 19.6124 19.1088 19.3607 19.3605ZM17.1152 14.8947C17.1152 13.671 16.1193 12.6751 14.8948 12.6751C13.6711 12.6751 12.6752 13.671 12.6752 14.8947C12.6752 16.1183 13.6711 17.1143 14.8948 17.1143C16.1193 17.1151 17.1152 16.1192 17.1152 14.8947Z" fill="var(--fill-0, white)"/>
</g>
</svg>
