<svg preserveAspectRatio="none" width="100%" height="100%" overflow="visible" style="display: block;" viewBox="0 0 39.6088 39.6088" fill="none" xmlns="http://www.w3.org/2000/svg">
<g id="user-search">
<path id="user-search_2" d="M9.91735 10.7277C9.91735 7.08704 12.8781 4.12629 16.5188 4.12629C20.1595 4.12629 23.1203 7.08704 23.1203 10.7277C23.1203 14.3685 20.1595 17.3292 16.5188 17.3292C12.8781 17.3292 9.91735 14.3685 9.91735 10.7277ZM19.392 28.6011C19.392 25.8665 20.6628 23.5049 22.4782 21.7291C22.706 21.5063 22.6366 21.2588 22.6251 21.2275C22.6185 21.2093 22.574 20.9485 22.234 20.8759C21.498 20.7175 20.6859 20.6315 19.8062 20.6315H13.2048C6.5043 20.6315 4.12778 25.5332 4.12778 29.7416C4.12778 33.5044 6.12472 35.4848 9.90406 35.4848H21.3081C21.5887 35.4848 21.8033 35.2704 21.8033 34.9898C21.8033 34.8578 21.7504 34.7405 21.6546 34.6431C20.2337 33.0241 19.392 30.9116 19.392 28.6011ZM37.183 37.1831C36.9421 37.4241 36.6252 37.5462 36.3083 37.5462C35.9914 37.5462 35.6745 37.4257 35.4335 37.1831L32.4118 34.1596C31.3275 34.9039 30.0187 35.3446 28.6077 35.3446C24.8927 35.3446 21.8692 32.3211 21.8692 28.6062C21.8692 24.8912 24.8927 21.8677 28.6077 21.8677C32.3243 21.8677 35.3477 24.8912 35.3477 28.6062C35.3477 30.0172 34.907 31.3258 34.1627 32.4101L37.1846 35.432C37.6665 35.9173 37.6666 36.6996 37.183 37.1831ZM32.8706 28.6062C32.8706 26.256 30.9578 24.3433 28.606 24.3433C26.2559 24.3433 24.3431 26.256 24.3431 28.6062C24.3431 30.9563 26.2559 32.8691 28.606 32.8691C30.9578 32.8707 32.8706 30.9579 32.8706 28.6062Z" fill="var(--fill-0, white)"/>
</g>
</svg>
