<svg preserveAspectRatio="none" width="100%" height="100%" overflow="visible" style="display: block;" viewBox="0 0 240 205.778" fill="none" xmlns="http://www.w3.org/2000/svg">
<g id="&#229;&#136;&#134;&#231;&#187;&#132; 33">
<g id="&#229;&#136;&#134;&#231;&#187;&#132; 3 copy 9">
<path id="&#232;&#183;&#175;&#229;&#190;&#132;" d="M239.001 203.869C244.79 192.414 228.246 135.137 113.538 135.137C30.7419 135.137 -7.2593 182.019 1.14201 205.778" fill="url(#paint0_radial_0_55)"/>
<mask id="mask0_0_55" style="mask-type:luminance" maskUnits="userSpaceOnUse" x="0" y="135" width="240" height="71">
<path id="&#232;&#183;&#175;&#229;&#190;&#132;_2" d="M239.001 203.869C244.79 192.414 228.246 135.137 113.538 135.137C30.7419 135.137 -7.2593 182.019 1.14201 205.778" fill="var(--fill-0, white)"/>
</mask>
<g mask="url(#mask0_0_55)">
<ellipse id="&#230;&#164;&#173;&#229;&#156;&#134;&#229;&#189;&#162; copy 2" opacity="0.671968" cx="95.8459" cy="167.257" rx="6.30841" ry="3.50401" fill="url(#paint1_linear_0_55)"/>
<ellipse id="&#230;&#164;&#173;&#229;&#156;&#134;&#229;&#189;&#162; copy 3" opacity="0.729957" cx="160.235" cy="161.908" rx="9.95327" ry="5.46626" fill="url(#paint2_linear_0_55)"/>
<ellipse id="&#230;&#164;&#173;&#229;&#156;&#134;&#229;&#189;&#162; copy 4" opacity="0.729957" cx="46.9626" cy="147.331" rx="9.95327" ry="5.46626" fill="url(#paint3_linear_0_55)"/>
</g>
</g>
<g id="&#229;&#136;&#134;&#231;&#187;&#132; 5 copy 5" opacity="0.320685">
<ellipse id="&#230;&#164;&#173;&#229;&#156;&#134;&#229;&#189;&#162;" cx="186.15" cy="39.6018" rx="6.72897" ry="6.7277" fill="url(#paint4_linear_0_55)"/>
<path id="&#232;&#183;&#175;&#229;&#190;&#132;_3" d="M192.275 43.7079C190.358 43.6193 187.85 43.0649 185.281 42.1301C182.712 41.1952 180.435 40.0085 178.91 38.8445C178.266 38.3529 177.796 37.8936 177.531 37.5203C177.609 37.5001 177.697 37.481 177.794 37.4638C178.534 37.3337 179.614 37.352 180.9 37.5334L181.37 34.2018C177.642 33.6764 174.938 34.1518 174.159 36.2929C173.025 39.4073 177.642 42.9304 184.131 45.2917C190.62 47.653 196.421 47.9211 197.555 44.8069C198.35 42.6229 196.608 40.8975 192.911 38.6087L191.14 41.4696C192.398 42.2481 193.337 42.9359 193.909 43.5021C193.949 43.5417 193.986 43.58 194.021 43.6169C193.587 43.7059 192.991 43.741 192.275 43.7079Z" fill="url(#paint5_linear_0_55)"/>
<path id="&#232;&#183;&#175;&#229;&#190;&#132;_4" d="M192.892 39.6018C192.892 35.8862 189.879 32.8741 186.163 32.8741C182.447 32.8741 180.119 35.2497 179.639 37.9283C179.639 37.9283 183.507 40.3498 185.293 40.8703C185.862 41.0363 186.427 41.2516 187.002 41.4425C187.645 41.6561 188.3 41.8444 188.963 42.0078C189.416 42.1196 190.038 42.2924 190.619 42.4004C191.384 42.5427 192.07 42.6063 192.124 42.6063C192.219 42.6063 192.323 42.1832 192.537 41.6903C192.751 41.1973 192.892 39.6018 192.892 39.6018Z" fill="url(#paint6_linear_0_55)"/>
</g>
<circle id="&#230;&#164;&#173;&#229;&#156;&#134;&#229;&#189;&#162; copy 58" opacity="0.418364" cx="38.3087" cy="79.2907" r="7.84615" fill="url(#paint7_linear_0_55)"/>
<ellipse id="&#230;&#164;&#173;&#229;&#156;&#134;&#229;&#189;&#162; copy 59" opacity="0.425921" cx="123.231" cy="146.214" rx="23.5385" ry="6.46154" fill="url(#paint8_linear_0_55)"/>
<g id="&#229;&#136;&#134;&#231;&#187;&#132; 24">
<g id="&#229;&#136;&#134;&#231;&#187;&#132; 12">
<path id="&#232;&#183;&#175;&#229;&#190;&#132; 26" d="M106.983 109.291C106.983 109.291 106.338 111.158 106.338 112.47C105.694 123.895 107.292 142.522 107.292 142.522H109.773L113.436 114.494L118.401 142.522H120.842C120.842 142.522 121.164 124.53 120.197 112.47C120.197 111.171 119.635 109.926 119.635 109.926L106.983 109.291Z" fill="url(#paint9_linear_0_55)"/>
<path id="&#232;&#183;&#175;&#229;&#190;&#132; 23" d="M104.799 94.8298L99.8804 95.9938L98.2017 95.5478L87.5375 93.9992L84.9624 93.9992L84.9523 90.5903L85.5875 91.8991L86.7306 92.2582C86.7306 92.2582 87.3468 91.0137 87.5375 91.226C87.7282 91.4383 87.8109 92.3127 87.8109 92.3127L88.7637 92.8059L100.117 92.8059L102.799 91.2298L104.799 94.8298Z" fill="var(--fill-0, #FDE7E6)"/>
<path id="&#232;&#183;&#175;&#229;&#190;&#132; 23_2" d="M120.8 94.8298L125.866 95.9938L127.545 95.5478L138.209 93.9992L141.127 92.5117L142.118 90.5315L141.747 90.479L140.159 91.8991L139.016 92.2582C139.016 92.2582 138.4 91.0137 138.209 91.226C138.019 91.4383 137.936 92.3127 137.936 92.3127L136.983 92.8059L125.63 92.8059L122.8 91.2298L120.8 94.8298Z" fill="var(--fill-0, #FDE7E6)"/>
<path id="&#232;&#183;&#175;&#229;&#190;&#132; 2" d="M123.692 91.4384L122.131 95.2395H118.314L119.999 111.027C119.999 111.027 115.186 111.836 112.641 112.032C110.096 112.229 106.474 111.027 106.474 111.027C106.474 111.027 106.474 105.522 106.474 95.6417C106.474 95.6417 103.085 95.2395 103.085 95.2395L102.461 91.4384C102.461 91.4384 105.626 89.2164 106.474 88.847C107.323 88.4777 110.189 88.0599 110.189 88.0599L114.725 88.0599C114.725 88.0599 118.327 88.1992 119.008 88.847C119.69 89.4949 123.692 91.4384 123.692 91.4384Z" fill="url(#paint10_linear_0_55)"/>
<g id="&#229;&#136;&#134;&#231;&#187;&#132; 10">
<path id="&#229;&#144;&#136;&#229;&#185;&#182;&#229;&#189;&#162;&#231;&#138;&#182;" d="M111.577 89.0607V85.2912H114.417V89.0607C114.417 89.0607 112.713 91.753 112.713 91.2179C112.713 90.8165 112.074 89.8036 111.754 89.3224L111.577 89.0607Z" fill="var(--fill-0, #FECECD)"/>
<ellipse id="&#230;&#164;&#173;&#229;&#156;&#134;&#229;&#189;&#162;_2" cx="112.861" cy="84.143" rx="2.98944" ry="4.23698" fill="var(--fill-0, #FFE9E9)"/>
<path id="&#232;&#183;&#175;&#229;&#190;&#132; 20" fill-rule="evenodd" clip-rule="evenodd" d="M109.581 84.418C109.82 83.6191 109.82 81.8572 110.298 81.7998C110.777 81.7423 111.733 82.0759 112.69 81.4287C113.168 81.0734 113.407 81.0289 113.407 80.8504C115.799 81.2756 114.369 82.5586 115.56 83.972C115.684 84.1194 116.038 83.972 116.038 83.972C116.038 83.972 116.038 80.492 115.799 80.1815C115.56 79.8711 114.603 78.6207 114.125 79.5126C114.125 79.0667 113.168 78.6066 112.212 78.9481C111.255 79.2897 109.82 79.9586 109.581 80.8504C109.342 81.7423 109.103 83.5261 109.581 84.418Z" fill="var(--fill-0, #0E1117)"/>
</g>
<path id="&#232;&#183;&#175;&#229;&#190;&#132; 27" d="M107.482 142.522L106.818 143.652C106.383 144.393 106.153 145.237 106.153 146.096C106.153 146.161 106.206 146.214 106.271 146.214H109.357C109.627 146.214 109.845 145.995 109.845 145.725C109.845 144.828 109.681 143.938 109.359 143.1L109.137 142.522H107.482Z" fill="var(--fill-0, #677285)"/>
<path id="&#232;&#183;&#175;&#229;&#190;&#132; 27 copy" d="M120.517 142.522L121.181 143.652C121.617 144.393 121.846 145.237 121.846 146.096C121.846 146.161 121.794 146.214 121.729 146.214H118.643C118.373 146.214 118.154 145.995 118.154 145.725C118.154 144.828 118.319 143.938 118.64 143.1L118.863 142.522H120.517Z" fill="var(--fill-0, #677285)"/>
</g>
<path id="&#231;&#159;&#169;&#229;&#189;&#162;" d="M84.9625 3.86382H87.7317V144.633C87.7317 145.398 87.1118 146.018 86.3471 146.018V146.018C85.5824 146.018 84.9625 145.398 84.9625 144.633V3.86382Z" fill="var(--fill-0, #D8D8D8)"/>
<path id="&#231;&#159;&#169;&#229;&#189;&#162;_2" d="M84.9234 3.94635L101.915 7.98781C108.174 9.47655 114.768 8.40988 120.239 5.02379C127.957 0.246385 137.398 -0.859243 146.011 2.00547L151.847 3.94635L147.231 38.4811L145.932 37.951C137.574 34.5409 128.03 35.8648 120.916 41.4212C115.223 45.8679 107.567 46.8791 100.915 44.0631L84.9234 37.2938V3.94635Z" fill="var(--fill-0, #8ED28E)"/>
<g id="&#232;&#183;&#175;&#229;&#190;&#132; 2_2">
<path id="Mask" d="M125.899 12.045C126.82 11.0004 128.406 10.9173 129.431 11.8599C130.445 12.7922 130.528 14.3778 129.617 15.4111L114.408 32.6608C113.961 33.1679 113.34 33.464 112.681 33.4985C112.023 33.5331 111.374 33.3035 110.876 32.846L101.971 24.6576C100.957 23.7252 100.873 22.1396 101.784 21.1064C102.705 20.0619 104.291 19.9788 105.316 20.9213L112.362 27.3992L125.899 12.045Z" fill="var(--fill-0, white)"/>
<mask id="mask1_0_55" style="mask-type:luminance" maskUnits="userSpaceOnUse" x="101" y="11" width="30" height="23">
<path id="Mask_2" d="M125.899 12.045C126.82 11.0004 128.406 10.9173 129.431 11.8599C130.445 12.7922 130.528 14.3778 129.617 15.4111L114.408 32.6608C113.961 33.1679 113.34 33.464 112.681 33.4985C112.023 33.5331 111.374 33.3035 110.876 32.846L101.971 24.6576C100.957 23.7252 100.873 22.1396 101.784 21.1064C102.705 20.0619 104.291 19.9788 105.316 20.9213L112.362 27.3992L125.899 12.045Z" fill="var(--fill-0, white)"/>
</mask>
<g mask="url(#mask1_0_55)">
<path id="&#232;&#183;&#175;&#229;&#190;&#132; 2_3" opacity="0.8" d="M112.475 27.2529L106.567 33.5708L100.103 29.2879L109.323 20.0234L112.475 27.2529Z" fill="url(#paint11_linear_0_55)"/>
</g>
</g>
<path id="&#232;&#183;&#175;&#229;&#190;&#132; 58" d="M84.3688 91.3487C84.3688 91.3487 85.7534 90.6564 85.7534 90.8871C85.7534 91.1179 85.7534 93.6564 85.7534 93.6564L84.8303 94.1179L84.3688 91.3487Z" fill="var(--fill-0, #FFE9E9)"/>
</g>
</g>
<defs>
<radialGradient id="paint0_radial_0_55" cx="0" cy="0" r="1" gradientUnits="userSpaceOnUse" gradientTransform="translate(104.089 159.636) rotate(-90) scale(41.0722 428.958)">
<stop stop-color="#EBEDF0" stop-opacity="0.24"/>
<stop offset="0.536775" stop-color="#EBEDF0" stop-opacity="0.845525"/>
<stop offset="1" stop-color="#E0E4E7" stop-opacity="0.01"/>
</radialGradient>
<linearGradient id="paint1_linear_0_55" x1="90.7682" y1="166.328" x2="92.6901" y2="170.438" gradientUnits="userSpaceOnUse">
<stop stop-color="#E1E7EA"/>
<stop offset="1" stop-color="#D0D6DC"/>
</linearGradient>
<linearGradient id="paint2_linear_0_55" x1="151.877" y1="161.397" x2="155.394" y2="168.733" gradientUnits="userSpaceOnUse">
<stop stop-color="#E1E7EA"/>
<stop offset="1" stop-color="#D0D6DC"/>
</linearGradient>
<linearGradient id="paint3_linear_0_55" x1="40.6162" y1="147.42" x2="42.6061" y2="155.347" gradientUnits="userSpaceOnUse">
<stop stop-color="#FBFBFB"/>
<stop offset="1" stop-color="#D9DFE3"/>
</linearGradient>
<linearGradient id="paint4_linear_0_55" x1="176.958" y1="34.9691" x2="180.322" y2="46.6012" gradientUnits="userSpaceOnUse">
<stop stop-color="#ECECEC"/>
<stop offset="0.717538" stop-color="#E1E7EA"/>
<stop offset="1" stop-color="#BCC3CA"/>
</linearGradient>
<linearGradient id="paint5_linear_0_55" x1="179.81" y1="42.2322" x2="196.306" y2="48.2363" gradientUnits="userSpaceOnUse">
<stop stop-color="#BAC6D2"/>
<stop offset="1" stop-color="#7F8F9F"/>
</linearGradient>
<linearGradient id="paint6_linear_0_55" x1="183.674" y1="39.0228" x2="185.875" y2="43.4679" gradientUnits="userSpaceOnUse">
<stop stop-color="#E1E7EA"/>
<stop offset="1" stop-color="#D0D6DC"/>
</linearGradient>
<linearGradient id="paint7_linear_0_55" x1="48.6237" y1="81.6195" x2="40.789" y2="68.3881" gradientUnits="userSpaceOnUse">
<stop stop-color="#DAE2E6"/>
<stop offset="0.58" stop-color="#E3EBEF"/>
<stop offset="1" stop-color="#EDF6F9"/>
</linearGradient>
<linearGradient id="paint8_linear_0_55" x1="105.562" y1="146.98" x2="118.783" y2="167.547" gradientUnits="userSpaceOnUse">
<stop stop-color="#C4CDD1"/>
<stop offset="1" stop-color="#C6CFD3" stop-opacity="0.01"/>
</linearGradient>
<linearGradient id="paint9_linear_0_55" x1="120.867" y1="142.522" x2="120.867" y2="109.54" gradientUnits="userSpaceOnUse">
<stop stop-color="#A1A7B8"/>
<stop offset="1" stop-color="#7B8195"/>
</linearGradient>
<linearGradient id="paint10_linear_0_55" x1="134.432" y1="99.0181" x2="114" y2="122.388" gradientUnits="userSpaceOnUse">
<stop stop-color="#E5E9F0"/>
<stop offset="1" stop-color="#D2DAE8"/>
</linearGradient>
<linearGradient id="paint11_linear_0_55" x1="103.062" y1="26.9455" x2="109.038" y2="31.161" gradientUnits="userSpaceOnUse">
<stop stop-color="#67D666" stop-opacity="0.01"/>
<stop offset="1" stop-color="#67D666" stop-opacity="0.2"/>
</linearGradient>
</defs>
</svg>
