<svg preserveAspectRatio="none" width="100%" height="100%" overflow="visible" style="display: block;" viewBox="0 0 62.4592 62.4592" fill="none" xmlns="http://www.w3.org/2000/svg">
<g id="user-search">
<path id="user-search_2" d="M15.6393 16.9164C15.6393 11.1754 20.3081 6.50656 26.0491 6.50656C31.7902 6.50656 36.459 11.1754 36.459 16.9164C36.459 22.6575 31.7902 27.3263 26.0491 27.3263C20.3081 27.3263 15.6393 22.6575 15.6393 16.9164ZM30.5799 45.101C30.5799 40.7887 32.5838 37.0648 35.4465 34.2645C35.8057 33.9132 35.6963 33.5229 35.6781 33.4735C35.6677 33.4448 35.5976 33.0336 35.0615 32.9191C33.9008 32.6693 32.6202 32.5338 31.2331 32.5338H20.8232C10.2572 32.5338 6.50966 40.2631 6.50966 46.8994C6.50966 52.8331 9.65864 55.956 15.6183 55.956H33.6014C34.0439 55.956 34.3823 55.6178 34.3823 55.1754C34.3823 54.9672 34.2988 54.7822 34.1478 54.6287C31.9071 52.0757 30.5799 48.7445 30.5799 45.101ZM58.6346 58.634C58.2547 59.014 57.7549 59.2065 57.2552 59.2065C56.7556 59.2065 56.2558 59.0166 55.8758 58.634L51.1109 53.8662C49.4011 55.04 47.3372 55.7349 45.1121 55.7349C39.2539 55.7349 34.4862 50.9671 34.4862 45.109C34.4862 39.2508 39.2539 34.4831 45.1121 34.4831C50.9728 34.4831 55.7405 39.2508 55.7405 45.109C55.7405 47.3341 55.0456 49.3977 53.8719 51.1075L58.6372 55.8727C59.3971 56.6379 59.3971 57.8715 58.6346 58.634ZM51.8343 45.109C51.8343 41.4031 48.8181 38.3868 45.1095 38.3868C41.4036 38.3868 38.3873 41.4031 38.3873 45.109C38.3873 48.8149 41.4036 51.8312 45.1095 51.8312C48.8181 51.8338 51.8343 48.8175 51.8343 45.109Z" fill="var(--fill-0, white)"/>
</g>
</svg>
